<?xml version="1.0" encoding="utf-8"?>
<!-- Generator: Adobe Illustrator 16.0.0, SVG Export Plug-In . SVG Version: 6.00 Build 0)  -->
<!DOCTYPE svg PUBLIC "-//W3C//DTD SVG 1.1//EN" "http://www.w3.org/Graphics/SVG/1.1/DTD/svg11.dtd">
<svg version="1.1" id="Layer_1" xmlns="http://www.w3.org/2000/svg" xmlns:xlink="http://www.w3.org/1999/xlink" x="0px" y="0px"
	 width="1400px" height="980px" viewBox="0 0 1400 980" enable-background="new 0 0 1400 980" xml:space="preserve">
<g>
	<g>
		<rect fill="#DA5050" width="1399.994" height="980"/>
	</g>
	<g>
		<g>
			<path fill="#354350" d="M1109.538,74.312c-63.658,0-115.266,51.605-115.266,115.266c0,63.658,51.607,115.266,115.266,115.266
				c63.66,0,115.266-51.607,115.266-115.266C1224.804,125.917,1173.198,74.312,1109.538,74.312z M1109.538,295.538
				c-58.52,0-105.962-47.439-105.962-105.961s47.442-105.961,105.962-105.961S1215.5,131.056,1215.5,189.577
				S1168.058,295.538,1109.538,295.538z"/>
		</g>
		<circle fill="#2B3844" cx="1109.538" cy="189.577" r="105.961"/>
		<path fill="#DEDFE0" d="M1124.149,105.413c20.726,0,39.93,6.518,55.68,17.611c-17.645-18.627-42.61-30.25-70.291-30.25
			c-53.462,0-96.803,43.34-96.803,96.803c0,32.734,16.252,61.67,41.123,79.189c-16.43-17.348-26.51-40.771-26.51-66.551
			C1027.349,148.753,1070.688,105.413,1124.149,105.413z"/>
		<path fill="#FFFFFF" d="M1206.341,189.577c0-25.781-10.08-49.205-26.512-66.553c-15.75-11.094-34.954-17.611-55.68-17.611
			c-53.462,0-96.801,43.34-96.801,96.803c0,25.779,10.08,49.203,26.51,66.551c15.748,11.094,34.951,17.611,55.68,17.611
			C1163.001,286.378,1206.341,243.04,1206.341,189.577z"/>
		<g>
			<path fill="#1D6FB8" d="M1112.598,111.978c0,1.525-1.235,2.76-2.761,2.76l0,0c-1.525,0-2.76-1.234-2.76-2.76V99.37
				c0-1.525,1.234-2.764,2.76-2.764l0,0c1.525,0,2.761,1.238,2.761,2.764V111.978z"/>
			<g>
				<path fill="#1D6FB8" d="M1154.679,168.681l-45.141,10.408c-5.148,0-9.42,3.711-10.31,8.602l-0.005-0.002l-18.813,63.268
					l35.25-52.865l-0.005-0.006c2.059-1.484,3.562-3.693,4.123-6.258l0.003,0.004L1154.679,168.681z"/>
				<path fill="#1D6FB8" d="M1112.598,279.847c0,1.525-1.235,2.762-2.761,2.762l0,0c-1.525,0-2.76-1.236-2.76-2.762v-12.607
					c0-1.523,1.234-2.762,2.76-2.762l0,0c1.525,0,2.761,1.238,2.761,2.762V279.847z"/>
				<path fill="#1D6FB8" d="M1187.468,192.37c-1.523,0-2.76-1.236-2.76-2.762l0,0c0-1.525,1.236-2.762,2.76-2.762h12.609
					c1.523,0,2.76,1.236,2.76,2.762l0,0c0,1.525-1.236,2.762-2.76,2.762H1187.468z"/>
				<path fill="#1D6FB8" d="M1019.597,192.37c-1.523,0-2.76-1.236-2.76-2.762l0,0c0-1.525,1.236-2.762,2.76-2.762h12.609
					c1.523,0,2.76,1.236,2.76,2.762l0,0c0,1.525-1.236,2.762-2.76,2.762H1019.597z"/>
				<path fill="#1D6FB8" d="M1078.454,109.827c0.209,0.514-0.039,1.104-0.553,1.311l0,0c-0.518,0.211-1.105-0.037-1.314-0.553
					l-2.361-5.803c-0.209-0.516,0.037-1.104,0.554-1.313l0,0c0.515-0.211,1.103,0.037,1.312,0.553L1078.454,109.827z"/>
				<path fill="#1D6FB8" d="M1145.448,274.435c0.209,0.516-0.037,1.104-0.554,1.313l0,0c-0.515,0.211-1.102-0.037-1.312-0.553
					l-2.363-5.805c-0.21-0.516,0.039-1.104,0.553-1.313l0,0c0.515-0.211,1.105,0.037,1.313,0.553L1145.448,274.435z"/>
				<path fill="#1D6FB8" d="M1049.937,128.272c0.393,0.393,0.395,1.033,0,1.426l0,0c-0.395,0.391-1.031,0.391-1.425,0l-4.431-4.432
					c-0.393-0.395-0.393-1.031,0.002-1.426l0,0c0.391-0.393,1.029-0.393,1.422,0L1049.937,128.272z"/>
				<path fill="#1D6FB8" d="M1175.591,253.95c0.395,0.395,0.393,1.031,0,1.426l0,0c-0.393,0.393-1.03,0.393-1.424,0l-4.43-4.432
					c-0.395-0.395-0.395-1.031,0-1.426l0,0c0.393-0.393,1.03-0.393,1.424,0L1175.591,253.95z"/>
				<path fill="#1D6FB8" d="M1032.536,152.53c0.504,0.234,0.725,0.836,0.488,1.34l0,0c-0.234,0.504-0.834,0.721-1.338,0.488
					l-5.682-2.645c-0.504-0.234-0.724-0.834-0.488-1.338l0,0c0.234-0.504,0.834-0.723,1.338-0.488L1032.536,152.53z"/>
				<path fill="#1D6FB8" d="M1193.669,227.503c0.504,0.234,0.721,0.834,0.488,1.336l0,0c-0.235,0.506-0.835,0.725-1.338,0.49
					l-5.682-2.645c-0.506-0.234-0.725-0.834-0.488-1.338l0,0c0.234-0.504,0.833-0.723,1.336-0.488L1193.669,227.503z"/>
				<path fill="#1D6FB8" d="M1029.882,220.548c0.517-0.207,1.102,0.043,1.309,0.559l0,0c0.207,0.518-0.045,1.104-0.559,1.311
					l-5.817,2.33c-0.517,0.207-1.104-0.043-1.311-0.561l0,0c-0.208-0.518,0.044-1.104,0.56-1.309L1029.882,220.548z"/>
				<path fill="#1D6FB8" d="M1194.859,154.47c0.517-0.207,1.104,0.043,1.312,0.563l0,0c0.207,0.516-0.045,1.102-0.561,1.309
					l-5.818,2.328c-0.517,0.207-1.102-0.043-1.309-0.559l0,0c-0.207-0.516,0.045-1.104,0.561-1.311L1194.859,154.47z"/>
				<path fill="#1D6FB8" d="M1048.169,249.165c0.395-0.389,1.033-0.387,1.424,0.01l0,0c0.392,0.396,0.387,1.033-0.007,1.424
					l-4.456,4.406c-0.396,0.391-1.034,0.387-1.425-0.008l0,0c-0.392-0.396-0.388-1.033,0.008-1.426L1048.169,249.165z"/>
				<path fill="#1D6FB8" d="M1174.544,124.214c0.396-0.393,1.034-0.389,1.425,0.008l0,0c0.392,0.395,0.388,1.033-0.008,1.424
					l-4.456,4.406c-0.396,0.389-1.033,0.387-1.425-0.01l0,0c-0.391-0.393-0.388-1.031,0.008-1.424L1174.544,124.214z"/>
				<path fill="#1D6FB8" d="M1072.329,266.7c0.239-0.502,0.84-0.717,1.342-0.48l0,0c0.502,0.238,0.718,0.84,0.481,1.342
					l-2.675,5.666c-0.239,0.504-0.84,0.719-1.342,0.48l0,0c-0.502-0.236-0.718-0.836-0.48-1.338L1072.329,266.7z"/>
				<path fill="#1D6FB8" d="M1148.196,105.989c0.239-0.504,0.84-0.717,1.341-0.48l0,0c0.503,0.236,0.719,0.838,0.482,1.342
					l-2.675,5.666c-0.239,0.502-0.84,0.719-1.341,0.479l0,0c-0.503-0.234-0.719-0.836-0.482-1.338L1148.196,105.989z"/>
			</g>
		</g>
		<circle fill="#FFFFFF" cx="1109.538" cy="189.577" r="6.123"/>
	</g>
	<g opacity="0.15">
		<g>
			<g>
				<g>
					<g>
						<g>
							<g>
								<g>
									<path fill="#4D2B14" d="M914.258,750.781c0,11.054-8.679,20.028-19.384,20.028H461.886
										c-10.703,0-19.406-8.975-19.406-20.028V448.523c0-11.064,8.703-20.041,19.406-20.041h432.988
										c10.705,0,19.384,8.977,19.384,20.041V750.781z"/>
								</g>
							</g>
						</g>
					</g>
				</g>
			</g>
		</g>
		<g>
			<g>
				<g>
					<g>
						<g>
							<g>
								<g>
									<path fill="#4D2B14" d="M627.405,750.508c-0.113,0.535-0.195,1.076-0.195,1.65c0,4.375,3.449,7.935,7.676,7.935h86.975
										c4.248,0,7.691-3.56,7.691-7.935c0-0.574-0.076-1.115-0.199-1.65H627.405z"/>
								</g>
							</g>
						</g>
					</g>
				</g>
			</g>
		</g>
		<g>
			<g>
				<g>
					<g>
						<g>
							<g>
								<g>
									<rect x="464.054" y="451.795" fill="#4D2B14" width="429.158" height="280.157"/>
								</g>
							</g>
						</g>
					</g>
				</g>
			</g>
		</g>
		<g>
			<g>
				<g>
					<g>
						<g>
							<g>
								<g>
									<path fill="#4D2B14" d="M681.21,442.049c0,1.619-1.279,2.939-2.842,2.939c-1.576,0-2.84-1.32-2.84-2.939
										c0-1.613,1.264-2.936,2.84-2.936C679.931,439.113,681.21,440.436,681.21,442.049z"/>
								</g>
							</g>
						</g>
					</g>
				</g>
			</g>
		</g>
		<g opacity="0.15">
			<g>
				<g>
					<g>
						<g>
							<g>
								<g>
									<polygon fill="#4D2B14" points="464.054,731.952 464.142,451.926 893.212,451.795 									"/>
								</g>
							</g>
						</g>
					</g>
				</g>
			</g>
		</g>
	</g>
	<g>
		<g>
			<g>
				<g>
					<g>
						<g>
							<g>
								<path fill="#414350" d="M914.258,741.43c0,11.063-8.679,20.028-19.384,20.028H461.886c-10.703,0-19.406-8.966-19.406-20.028
									V439.172c0-11.066,8.703-20.038,19.406-20.038h432.988c10.705,0,19.384,8.972,19.384,20.038V741.43z"/>
							</g>
						</g>
					</g>
				</g>
			</g>
		</g>
	</g>
	<g>
		<g>
			<g>
				<g>
					<g>
						<g>
							<g>
								<path fill="#DBDBDB" d="M374.636,752.908v5.227v0.709v0.24h0.213c12.015,15.538,20.566,13.282,22.984,13.282l280.621-0.027
									l240.519,0.027h44.588c4.158-0.516,10.571-3.023,18.487-13.282h0.064v-0.082v-0.867v-5.227H374.636z"/>
							</g>
						</g>
					</g>
				</g>
			</g>
		</g>
	</g>
	<g>
		<g>
			<g>
				<g>
					<g>
						<g>
							<g>
								<path fill="#FFFFFF" d="M374.636,741.156v18.154c2.245,0.302,4.624,0.481,7.101,0.481h593.276c2.475,0,4.889-0.18,7.1-0.481
									v-18.154H374.636z"/>
							</g>
						</g>
					</g>
				</g>
			</g>
		</g>
	</g>
	<g>
		<g>
			<g>
				<g>
					<g>
						<g>
							<g>
								<path fill="#B8B8B8" d="M627.405,741.156c-0.113,0.535-0.195,1.078-0.195,1.658c0,4.369,3.449,7.922,7.676,7.922h86.975
									c4.248,0,7.691-3.553,7.691-7.922c0-0.58-0.076-1.123-0.199-1.658H627.405z"/>
							</g>
						</g>
					</g>
				</g>
			</g>
		</g>
	</g>
	<g>
		<g>
			<g>
				<g>
					<g>
						<g>
							<g>
								<rect x="464.054" y="442.447" fill="#D0FBFF" width="429.158" height="280.153"/>
							</g>
						</g>
					</g>
				</g>
			</g>
		</g>
	</g>
	<g opacity="0.15">
		<g>
			<g>
				<g>
					<g>
						<g>
							<g>
								<polygon fill="#FFFFFF" points="464.054,722.601 464.142,442.574 893.212,442.447 								"/>
							</g>
						</g>
					</g>
				</g>
			</g>
		</g>
	</g>
	<g>
		<rect x="464.054" y="442.447" fill="#FFFFFF" width="430.836" height="280.214"/>
	</g>
	<rect x="57.284" y="772.48" fill="#58595B" width="1285.427" height="39.958"/>
	<rect x="145.685" y="812.438" fill="#FFFFFF" width="1108.627" height="39.954"/>
	<rect x="165.368" y="852.393" fill="#FFFFFF" width="307.167" height="127.607"/>
	<rect x="1186.235" y="852.393" fill="#FFFFFF" width="45.174" height="127.607"/>
	<rect x="145.685" y="812.384" fill="#DADBDC" width="1108.627" height="7.252"/>
	<rect x="165.368" y="852.393" fill="#DADBDC" width="307.167" height="7.252"/>
	<rect x="165.368" y="957.075" fill="#DADBDC" width="307.167" height="7.251"/>
	<rect x="1186.235" y="852.393" fill="#DADBDC" width="45.174" height="7.252"/>
	<path fill="#6E4F3D" d="M332.499,907.862c0,7.479-6.066,13.55-13.541,13.55c-7.49,0-13.557-6.07-13.557-13.55
		c0-7.486,6.066-13.553,13.557-13.553C326.433,894.31,332.499,900.376,332.499,907.862z"/>
	<g>
		<g>
			
				<rect x="141.734" y="422.429" transform="matrix(0.7526 0.6585 -0.6585 0.7526 377.3109 32.9576)" fill="#354350" width="6.119" height="192.385"/>
		</g>
		<g>
			<path fill="#354350" d="M221.969,464.293L97.126,606.973l4.605,4.03l120.471-137.682
				C222.006,470.319,221.928,467.309,221.969,464.293z"/>
			<path fill="#354350" d="M223.811,462.189l-1.841,2.104c-0.042,3.016,0.037,6.026,0.233,9.028l6.214-7.104L223.811,462.189z"/>
		</g>
		<g>
			
				<rect x="51.083" y="671.395" transform="matrix(0.7526 0.6585 -0.6585 0.7526 480.5698 69.8947)" fill="#354350" width="192.382" height="6.12"/>
		</g>
		<g>
			
				<rect x="65.153" y="663.668" transform="matrix(0.7517 0.6595 -0.6595 0.7517 483.6024 48.9902)" fill="#354350" width="223.176" height="6.121"/>
		</g>
		<path fill="#FFF845" d="M279.984,735.67v-3.168c0-3.248,2.633-5.881,5.882-5.881c3.247,0,5.881,2.633,5.881,5.881v3.168H279.984z"
			/>
		<path fill="#E6E6E6" d="M58.528,604.891c0,16.154,13.1,29.254,29.257,29.254c16.153,0,29.253-13.1,29.253-29.254
			c0-16.156-13.1-29.256-29.253-29.256C71.627,575.635,58.528,588.734,58.528,604.891z"/>
		<path fill="#354350" d="M67,604.891c0,11.479,9.305,20.785,20.785,20.785c11.474,0,20.784-9.307,20.784-20.785
			c0-11.48-9.31-20.784-20.784-20.784C76.306,584.106,67,593.41,67,604.891z"/>
		<path fill="#4A5C70" d="M156.341,759.987c-0.228,1.462-0.35,2.963-0.35,4.491v8.002h180.295v-8.002
			c0-2.793-0.406-5.489-1.146-8.043L156.341,759.987z"/>
		<path fill="#586E85" d="M307.474,735.67H184.803c-14.388,0-26.304,10.538-28.462,24.317l178.799-3.552
			C331.66,744.438,320.598,735.67,307.474,735.67z"/>
		<g>
			<path fill="#FEEF87" d="M286.317,504.859c0-18.322,14.862-33.187,33.189-33.187c18.327,0,33.186,14.864,33.186,33.187
				c0,18.327-14.859,33.18-33.186,33.18C301.18,538.039,286.317,523.187,286.317,504.859z"/>
		</g>
		<polygon fill="#354350" points="197.018,408.304 229.108,376.214 282.89,425.417 376.712,448.305 277.947,542.235 
			254.931,470.448 		"/>
		<polygon fill="#26313B" points="254.931,470.448 277.947,542.235 260.007,559.296 235.975,482.636 185.624,419.698 
			197.018,408.304 		"/>
	</g>
	<rect x="504.486" y="466.112" fill="#E6E6E6" width="153.514" height="15.188"/>
	<rect x="675.528" y="466.112" fill="#E6E6E6" width="201.472" height="131.704"/>
	<rect x="481.638" y="466.112" fill="#FFB59B" width="22.848" height="15.188"/>
	<rect x="675.528" y="466.112" fill="#FEEF87" width="201.472" height="15.188"/>
	<rect x="481.638" y="495.241" fill="#FFB59B" width="22.848" height="15.188"/>
	<rect x="481.638" y="524.37" fill="#FFB59B" width="22.848" height="15.188"/>
	<rect x="481.638" y="553.499" fill="#FFB59B" width="22.848" height="15.188"/>
	<rect x="481.638" y="582.628" fill="#FFB59B" width="22.848" height="15.188"/>
	<rect x="481.638" y="611.757" fill="#FFB59B" width="22.848" height="15.188"/>
	<rect x="481.638" y="640.886" fill="#FFB59B" width="22.848" height="15.188"/>
	<rect x="675.528" y="619.351" fill="#B3DCFF" width="78.972" height="84.227"/>
	<rect x="754.5" y="619.351" fill="#E6E6E6" width="122.5" height="84.227"/>
	<rect x="504.486" y="495.241" fill="#E6E6E6" width="153.514" height="15.188"/>
	<rect x="504.486" y="524.371" fill="#E6E6E6" width="153.514" height="15.188"/>
	<rect x="504.486" y="553.501" fill="#E6E6E6" width="153.514" height="15.188"/>
	<rect x="504.486" y="582.63" fill="#E6E6E6" width="153.514" height="15.188"/>
	<rect x="504.486" y="611.76" fill="#E6E6E6" width="153.514" height="15.188"/>
	<rect x="504.486" y="640.889" fill="#E6E6E6" width="153.514" height="15.188"/>
	<rect x="481.638" y="671.577" fill="#E6E6E6" width="176.362" height="32"/>
	<g>
		<path fill="#84A767" d="M1089.598,473.267c0,0,1.74,1.929,4.787,5.305c1.579,1.637,3.212,3.875,5.224,6.341
			c2.05,2.448,4.094,5.388,6.372,8.575c2.357,3.137,4.525,6.783,7.004,10.533c2.366,3.814,4.76,7.908,7.168,12.186
			c2.296,4.332,4.779,8.768,6.952,13.449c2.325,4.611,4.4,9.431,6.489,14.256c1.101,2.391,1.955,4.877,2.937,7.309
			c0.922,2.453,1.964,4.856,2.75,7.33c1.692,4.908,3.358,9.748,4.651,14.55c1.482,4.741,2.454,9.474,3.519,13.931
			c0.548,2.223,0.819,4.459,1.221,6.588c0.334,2.146,0.799,4.189,0.987,6.211c0.208,2.022,0.406,3.959,0.595,5.8
			c0.214,1.843,0.369,3.599,0.354,5.279c0.013,3.354,0.256,6.259,0.035,8.707c-0.395,4.9-0.62,7.703-0.62,7.703l-12.669-2.205
			c0,0,0.372-2.356,1.021-6.479c0.369-2.063,0.329-4.699,0.563-7.666c0.138-1.484,0.118-3.089,0.048-4.789
			c-0.041-1.7-0.083-3.488-0.129-5.352c-0.022-1.869-0.318-3.822-0.475-5.848c-0.226-2.02-0.304-4.123-0.662-6.271
			c-0.688-4.291-1.251-8.857-2.326-13.517c-0.877-4.696-2.125-9.485-3.393-14.363c-0.576-2.456-1.404-4.862-2.117-7.313
			c-0.77-2.436-1.412-4.928-2.304-7.336c-1.673-4.857-3.335-9.73-5.265-14.416c-1.77-4.758-3.867-9.285-5.793-13.727
			c-2.04-4.379-4.084-8.592-6.124-12.531c-2.152-3.876-4.021-7.658-6.103-10.926c-2.004-3.32-3.811-6.396-5.639-8.956
			c-1.796-2.589-3.244-4.94-4.696-6.698C1091.185,475.323,1089.598,473.267,1089.598,473.267z"/>
		<path fill="#489B69" d="M1146.669,617.724c0,0,0.596-3.033,1.638-8.34c1.043-5.33,2.486-12.812,4.044-21.903
			c0.809-4.536,1.607-9.453,2.376-14.665c0.856-5.206,1.474-10.711,2.248-16.41c0.564-5.701,1.328-11.601,1.68-17.605
			c0.527-6.008,0.713-12.113,0.935-18.231c0-6.108,0.147-12.241-0.241-18.249c-0.156-6.032-0.816-11.92-1.352-17.646
			c-0.331-2.853-0.809-5.636-1.193-8.376c-0.203-1.369-0.404-2.725-0.6-4.061c-0.267-1.326-0.53-2.635-0.791-3.929
			c-0.53-2.585-1.048-5.099-1.55-7.532c-0.563-2.418-1.241-4.719-1.821-6.951c-0.62-2.221-1.117-4.383-1.768-6.385
			c-0.668-1.994-1.304-3.888-1.898-5.666c-0.598-1.781-1.158-3.448-1.676-4.99c-0.607-1.51-1.165-2.894-1.668-4.145
			c-2.041-5.008-3.207-7.868-3.207-7.868s1.352,2.78,3.715,7.647c0.585,1.221,1.235,2.574,1.943,4.046
			c0.618,1.513,1.286,3.147,2.002,4.893c0.716,1.751,1.479,3.612,2.283,5.573c0.783,1.971,1.424,4.109,2.195,6.307
			c0.73,2.21,1.567,4.495,2.295,6.898c0.666,2.427,1.354,4.934,2.063,7.51c0.35,1.291,0.701,2.602,1.058,3.928
			c0.291,1.342,0.582,2.697,0.879,4.072c0.569,2.75,1.238,5.55,1.763,8.426c0.922,5.764,1.984,11.729,2.542,17.847
			c0.794,6.103,1.052,12.337,1.456,18.575c0.182,6.233,0.397,12.487,0.259,18.628c0.038,6.155-0.344,12.181-0.545,18.035
			c-0.404,5.824-0.673,11.483-1.195,16.808c-0.437,5.339-0.919,10.375-1.438,15.011c-0.973,9.271-1.955,17.041-2.643,22.383
			c-0.695,5.362-1.093,8.427-1.093,8.427L1146.669,617.724z"/>
		<path fill="#489B69" d="M1173.532,333.374c0,0,1.899,4.34,5.22,11.936c1.697,3.777,3.578,8.448,5.796,13.788
			c2.318,5.297,4.4,11.487,6.895,18.171c1.16,3.37,2.117,6.969,3.247,10.654c0.513,1.855,1.19,3.704,1.59,5.655
			c0.414,1.949,0.836,3.931,1.261,5.935c0.427,2.01,0.859,4.049,1.296,6.111c0.492,2.054,0.575,4.199,0.885,6.334
			c0.258,2.145,0.517,4.313,0.78,6.502c0.131,1.095,0.262,2.197,0.395,3.305c0.108,1.105,0.088,2.226,0.138,3.346
			c0.126,4.49,0.257,9.055,0.387,13.676c-0.243,4.611-0.492,9.277-0.74,13.98c-0.449,9.203-1.09,18.797-1.708,28.197
			c-1.228,18.869-2.149,37.695-1.186,55.139c0.465,8.712,1.366,17.068,2.783,24.828c1.424,7.759,3.391,14.908,5.764,21.226
			c2.376,6.313,5.118,11.816,8.037,16.329c2.938,4.488,5.756,8.209,8.437,10.928c1.248,1.447,2.539,2.564,3.602,3.59
			c1.047,1.045,2.021,1.844,2.82,2.479c1.572,1.293,2.41,1.984,2.41,1.984l-8.031,10.041c0,0-0.957-0.854-2.75-2.454
			c-0.902-0.791-2.002-1.778-3.189-3.056c-1.203-1.259-2.647-2.646-4.047-4.394c-2.99-3.33-6.11-7.796-9.252-13.101
			c-3.125-5.324-5.952-11.676-8.278-18.76c-2.323-7.091-4.108-14.927-5.271-23.237c-1.155-8.313-1.721-17.093-1.818-26.125
			c-0.226-18.075,1.534-37.115,3.563-55.967c1.027-9.468,2.045-18.741,2.906-28.137c0.442-4.593,0.879-9.149,1.311-13.652
			c0.063-4.513,0.123-8.974,0.187-13.364c-0.003-1.095,0.067-2.195,0.007-3.279c-0.085-1.083-0.168-2.16-0.251-3.235
			c-0.165-2.149-0.331-4.279-0.494-6.387c-0.214-2.103-0.201-4.214-0.601-6.243c-0.344-2.04-0.684-4.057-1.018-6.043
			c-0.334-1.992-0.665-3.956-0.989-5.89c-0.313-1.938-0.906-3.788-1.333-5.642c-0.963-3.679-1.754-7.277-2.764-10.668
			c-2.192-6.727-3.998-12.975-6.088-18.352c-1.981-5.413-3.658-10.154-5.198-14.005
			C1175.245,337.79,1173.532,333.374,1173.532,333.374z"/>
		<path fill="#489B69" d="M1221.099,459.614c0,0,1.836,2.838,5.05,7.805c1.603,2.486,3.52,5.528,5.664,9.057
			c2.109,3.547,4.514,7.548,6.796,12.119c2.275,4.563,4.644,9.613,6.409,15.262c1.801,5.631,3.103,11.799,3.643,18.271
			c0.555,6.47,0.387,13.223-0.46,19.959c-0.615,6.607-1.243,13.321-1.868,20.035c-1.273,13.389-2.107,26.74-0.802,38.86
			c0.646,6.048,1.791,11.759,3.464,16.907c1.688,5.142,3.91,9.692,6.412,13.551c2.493,3.869,5.262,7.049,7.988,9.58
			c1.291,1.337,2.73,2.361,3.931,3.426c1.312,0.953,2.515,1.826,3.602,2.615c2.275,1.457,4.076,2.572,5.388,3.225
			c1.275,0.695,1.956,1.067,1.956,1.067l-6.163,11.286c0,0-0.776-0.484-2.232-1.391c-1.477-0.861-3.555-2.303-6.146-4.204
			c-1.266-1.003-2.645-2.146-4.131-3.396c-1.396-1.371-3.02-2.715-4.508-4.431c-3.115-3.263-6.26-7.349-8.977-12.179
			c-2.732-4.816-5.021-10.372-6.601-16.38c-1.564-6.013-2.441-12.442-2.747-19.024c-0.621-13.195,1.112-26.908,3.184-40.308
			c1.033-6.7,2.063-13.399,3.074-19.995c1.198-6.408,1.733-12.803,1.572-18.981c-0.146-6.181-1.031-12.134-2.443-17.663
			c-1.374-5.546-3.391-10.614-5.362-15.238c-1.977-4.631-4.124-8.742-6.01-12.392c-1.924-3.634-3.654-6.778-5.106-9.355
			C1222.764,462.555,1221.099,459.614,1221.099,459.614z"/>
		<path fill="#84A767" d="M1208.973,284.88c0,0,1.304,5.52,3.589,15.177c2.28,9.664,5.8,23.385,9.923,39.897
			c2.103,8.246,4.185,17.237,6.468,26.726c2.017,9.554,4.425,19.575,6.183,30.108c2.115,10.465,3.414,21.443,4.94,32.576
			c0.452,5.606,0.909,11.258,1.369,16.934l0.344,4.262l0.099,4.338c0.042,2.835,0.135,5.656,0.135,8.512
			c-0.198,11.59-0.954,22.995-2.097,34.172c-1.123,11.168-2.479,22.108-3.702,32.642c-1.269,10.544-2.258,20.69-3.014,30.3
			c-0.254,4.799-0.572,9.468-0.695,13.966c0.012,4.488-0.246,8.849-0.016,12.981c0.196,8.299,0.924,15.823,1.901,22.403
			c0.585,3.265,1.13,6.321,1.635,9.149c0.741,2.756,1.419,5.289,2.034,7.578c0.305,1.14,0.593,2.223,0.861,3.239
			c0.364,0.984,0.706,1.906,1.022,2.765c0.638,1.716,1.178,3.173,1.618,4.355c0.873,2.363,1.338,3.624,1.338,3.624l-11.914,4.837
			c0,0-0.471-1.414-1.356-4.068c-0.439-1.326-0.979-2.963-1.618-4.887c-0.313-0.963-0.65-1.994-1.009-3.1
			c-0.262-1.125-0.538-2.326-0.831-3.59c-0.581-2.528-1.224-5.328-1.924-8.375c-0.44-3.08-0.915-6.41-1.425-9.966
			c-0.801-7.12-1.286-15.17-1.183-23.885c-0.08-4.37,0.339-8.866,0.497-13.542c0.292-4.662,0.786-9.443,1.226-14.366
			c1.12-9.79,2.494-20.067,4.139-30.588c1.603-10.54,3.336-21.36,4.838-32.363c1.524-10.993,2.649-22.207,3.244-33.285
			c0.102-2.815,0.108-5.666,0.166-8.494l0.056-4.153l-0.19-4.203c-0.254-5.6-0.506-11.178-0.757-16.713
			c-1.12-11.033-2.014-21.937-3.744-32.395c-1.374-10.508-3.419-20.569-5.089-30.153c-1.941-9.538-3.699-18.575-5.508-26.888
			c-3.533-16.635-6.567-30.503-8.504-40.232C1210.08,290.442,1208.973,284.88,1208.973,284.88z"/>
		<path fill="#84A767" d="M1300.367,374.41c0,0-0.537,0.856-1.547,2.462c-0.952,1.637-2.615,3.89-4.245,7.029
			c-0.847,1.547-1.785,3.26-2.808,5.123c-0.914,1.92-1.904,3.994-2.961,6.211c-2.021,4.477-4.071,9.622-5.968,15.346
			c-0.97,2.855-1.763,5.9-2.692,9.006c-0.723,3.17-1.643,6.397-2.272,9.793c-1.452,6.746-2.438,13.967-3.313,21.436
			c-1.562,14.981-1.943,31.073-1.966,47.22c-0.032,16.146,0.126,32.378-0.563,47.698c-0.372,7.658-0.859,15.085-1.71,22.125
			c-0.752,7.047-1.917,13.689-3.1,19.813c-0.703,3.042-1.336,5.973-2.034,8.738c-0.776,2.75-1.47,5.375-2.206,7.818
			c-0.809,2.428-1.564,4.701-2.262,6.801c-0.744,2.088-1.535,3.969-2.195,5.689c-1.279,3.463-2.633,6.039-3.418,7.855
			c-0.829,1.801-1.269,2.76-1.269,2.76l-11.393-5.967c0,0,0.444-0.856,1.28-2.464c0.797-1.628,2.168-3.918,3.492-7.045
			c0.686-1.552,1.504-3.247,2.287-5.142c0.744-1.914,1.547-3.98,2.409-6.193c0.758-2.255,1.567-4.656,2.418-7.188
			c0.781-2.56,1.513-5.281,2.321-8.115c1.398-5.73,2.828-11.984,3.885-18.726c1.158-6.718,1.986-13.903,2.723-21.368
			c1.419-14.943,2.069-31.078,2.906-47.27c0.826-16.191,2.019-32.459,4.359-47.57c1.261-7.54,2.627-14.809,4.443-21.582
			c0.809-3.408,1.903-6.645,2.795-9.813c1.101-3.109,2.057-6.143,3.18-8.983c2.208-5.694,4.533-10.784,6.794-15.187
			c1.173-2.181,2.271-4.218,3.287-6.102c1.12-1.823,2.15-3.498,3.082-5.013c1.79-3.066,3.559-5.224,4.591-6.813
			C1299.787,375.239,1300.367,374.41,1300.367,374.41z"/>
		<path fill="#799A5E" d="M1341.402,432.233c0,0-0.683,0.577-1.964,1.657c-1.235,1.128-3.26,2.564-5.437,4.808
			c-1.113,1.087-2.347,2.29-3.689,3.602c-1.251,1.398-2.607,2.91-4.055,4.525c-1.418,1.635-2.777,3.506-4.287,5.399
			c-1.464,1.935-2.827,4.099-4.342,6.276c-2.771,4.539-5.644,9.529-8.067,15.109c-2.552,5.513-4.704,11.566-6.65,17.897
			c-1.981,6.323-3.499,13.024-4.92,19.843c-1.394,6.832-2.477,13.852-3.488,20.881c-1.954,14.085-3.389,28.293-5.026,41.666
			c-1.627,13.372-3.543,25.914-5.849,36.629c-0.62,2.678-1.214,5.238-1.778,7.678c-0.653,2.429-1.271,4.731-1.854,6.896
			c-1.304,4.307-2.474,8.06-3.624,11.108c-1.04,3.079-2.097,5.428-2.743,7.056c-0.668,1.619-1.021,2.483-1.021,2.483l-11.629-5.49
			c0,0,0.367-0.771,1.058-2.216c0.671-1.453,1.763-3.533,2.881-6.328c1.221-2.748,2.501-6.184,3.953-10.145
			c0.665-2.012,1.371-4.148,2.114-6.404c0.668-2.293,1.371-4.699,2.105-7.216c2.779-10.124,5.342-22.227,7.697-35.364
			c2.363-13.139,4.599-27.299,7.377-41.423c1.421-7.058,2.92-14.107,4.731-20.986c1.838-6.866,3.767-13.603,6.155-19.959
			c2.355-6.356,4.902-12.415,7.826-17.907c2.795-5.553,6.016-10.49,9.089-14.936c1.668-2.135,3.173-4.245,4.765-6.123
			c1.643-1.839,3.117-3.647,4.646-5.22c1.55-1.547,3.001-2.993,4.342-4.329c1.43-1.246,2.74-2.392,3.924-3.426
			c2.315-2.125,4.404-3.439,5.706-4.496C1340.689,432.771,1341.402,432.233,1341.402,432.233z"/>
		<path fill="#799A5E" d="M1215.498,412.171c0,0-0.596,0.668-1.711,1.919c-1.064,1.291-2.865,2.999-4.707,5.522
			c-0.949,1.233-1.998,2.6-3.144,4.09c-1.042,1.559-2.17,3.246-3.376,5.05c-1.176,1.818-2.255,3.862-3.483,5.952
			c-1.175,2.12-2.22,4.453-3.413,6.824c-2.104,4.883-4.244,10.229-5.857,16.096c-1.748,5.817-3.025,12.113-4.061,18.656
			c-1.07,6.54-1.627,13.387-2.074,20.338c-0.415,6.96-0.498,14.063-0.508,21.168c0.051,14.215,0.633,28.485,0.899,41.955
			c0.273,13.469,0.144,26.157-0.628,37.09c-0.236,2.734-0.462,5.357-0.678,7.848c-0.305,2.497-0.591,4.865-0.861,7.091
			c-0.687,4.448-1.314,8.328-2.022,11.508c-0.595,3.194-1.312,5.671-1.723,7.371c-0.433,1.698-0.661,2.604-0.661,2.604
			l-12.286-3.797c0,0,0.257-0.814,0.733-2.342c0.463-1.534,1.248-3.746,1.962-6.672c0.821-2.892,1.604-6.473,2.483-10.6
			c0.375-2.084,0.771-4.302,1.19-6.641c0.337-2.36,0.693-4.847,1.065-7.438c1.326-10.415,2.157-22.757,2.635-36.096
			c0.486-13.341,0.705-27.675,1.461-42.048c0.415-7.188,0.904-14.381,1.726-21.446c0.854-7.058,1.813-13.999,3.282-20.627
			c1.435-6.628,3.104-12.984,5.225-18.831c1.981-5.895,4.476-11.234,6.892-16.069c1.349-2.349,2.542-4.651,3.854-6.735
			c1.367-2.05,2.572-4.049,3.863-5.822c1.316-1.748,2.549-3.385,3.689-4.897c1.238-1.437,2.376-2.753,3.403-3.942
			c1.989-2.432,3.872-4.029,5.013-5.26C1214.867,412.804,1215.498,412.171,1215.498,412.171z"/>
		<polygon fill="#586E85" points="1305.897,663.192 1125.101,663.192 1120.344,614.329 1310.656,614.329 		"/>
		<polygon fill="#4A5C70" points="1292.938,663.192 1138.06,663.192 1138.06,670.908 1292.938,674.013 		"/>
		<path fill="#586E85" d="M1138.06,670.908v42.356c0,33.109,26.846,59.953,59.955,59.953h34.971
			c33.109,0,59.952-26.844,59.952-59.953v-39.252L1138.06,670.908z"/>
	</g>
	<g>
		<g>
			<path fill="#414350" d="M1100.62,762.396V604.652c0-10.094-12.224-11.061-12.224-11.061h-32.615h-32.617
				c0,0-12.223,0.967-12.223,11.061v157.744c0,0-0.258,10.082,11.385,10.082h33.455h33.459
				C1100.879,772.479,1100.62,762.396,1100.62,762.396z"/>
			<polygon fill="#FFFFFF" points="1016.006,616.485 1016.006,704.364 1016.006,750.752 1095.557,750.752 1095.557,653.332 
				1095.557,616.485 			"/>
			<path fill="#FFFFFF" d="M1061.395,762.297c0,3.094-2.511,5.605-5.613,5.605c-3.098,0-5.609-2.512-5.609-5.605
				c0-3.098,2.512-5.607,5.609-5.607C1058.884,756.689,1061.395,759.199,1061.395,762.297z"/>
			<g>
				<rect x="1042.002" y="605.727" fill="#BCBEC0" width="27.555" height="1.346"/>
			</g>
		</g>
		<rect x="1020.375" y="626.606" fill="#FFB59B" width="70.598" height="17.656"/>
		<rect x="1020.375" y="644.263" fill="#E6E6E6" width="70.598" height="99.17"/>
	</g>
	<rect x="122.123" y="306.683" fill="#6B6C6E" width="648.726" height="11.141"/>
	<rect x="137.717" y="140.303" fill="#46484A" width="179.188" height="166.462"/>
	<rect x="332.499" y="140.303" fill="#46484A" width="227.974" height="166.462"/>
	<rect x="576.067" y="140.303" fill="#46484A" width="179.188" height="166.462"/>
	<g>
		<path fill="#58595B" d="M122.123,124.709v208.665h648.726V124.709H122.123z M316.904,317.779H137.717V140.303h179.188V317.779z
			 M560.473,317.779H332.499V140.303h227.974V317.779z M755.255,317.779H576.067V140.303h179.188V317.779z"/>
	</g>
	<rect x="122.123" y="113.568" fill="#6B6C6E" width="648.726" height="11.141"/>
	<g>
		<path fill="#4DD0E2" d="M161.059,309.202h31.818c2.283,0,4.142-1.851,4.142-4.135V156.274c0-2.283-1.858-4.136-4.142-4.136
			h-31.818c-0.289,0-0.544,0.108-0.817,0.169v156.729C160.515,309.095,160.77,309.202,161.059,309.202z"/>
		<path fill="#44B8C9" d="M160.242,152.308c-1.882,0.386-3.321,1.972-3.321,3.967v148.793c0,1.994,1.439,3.579,3.321,3.97V152.308z"
			/>
	</g>
	<rect x="164.182" y="160.584" fill="#FFFFFF" width="25.567" height="95.313"/>
	<path fill="#FFFFFF" d="M187.998,281.755c0,6.089-4.938,11.027-11.031,11.027c-6.095,0-11.031-4.938-11.031-11.027
		c0-6.095,4.937-11.034,11.031-11.034C183.06,270.721,187.998,275.66,187.998,281.755z"/>
	<g>
		<g>
			<path fill="#D95543" d="M209.858,152.139h-0.468c-2.286,0-4.136,1.853-4.136,4.136v148.793c0,2.284,1.851,4.135,4.136,4.135
				h0.468V152.139z"/>
			<path fill="#F15F4C" d="M241.21,309.202c2.284,0,4.14-1.851,4.14-4.135V156.274c0-2.283-1.856-4.136-4.14-4.136h-31.352v157.063
				H241.21z"/>
		</g>
		<rect x="212.516" y="160.584" fill="#FFFFFF" width="25.564" height="95.313"/>
		<path fill="#FFFFFF" d="M236.331,281.755c0,6.089-4.939,11.027-11.032,11.027c-6.093,0-11.03-4.938-11.03-11.027
			c0-6.095,4.937-11.034,11.03-11.034C231.391,270.721,236.331,275.66,236.331,281.755z"/>
	</g>
	<g>
		<g>
			<path fill="#D95543" d="M258.3,152.389h-0.468c-2.286,0-4.136,1.853-4.136,4.136v148.793c0,2.284,1.851,4.135,4.136,4.135h0.468
				V152.389z"/>
			<path fill="#F15F4C" d="M289.652,309.452c2.284,0,4.14-1.851,4.14-4.135V156.524c0-2.283-1.856-4.136-4.14-4.136H258.3v157.063
				H289.652z"/>
		</g>
		<rect x="260.958" y="160.834" fill="#FFFFFF" width="25.564" height="95.313"/>
		<path fill="#FFFFFF" d="M284.772,282.005c0,6.089-4.939,11.027-11.032,11.027c-6.093,0-11.03-4.938-11.03-11.027
			c0-6.095,4.937-11.034,11.03-11.034C279.833,270.971,284.772,275.91,284.772,282.005z"/>
	</g>
	<g>
		<path fill="#A7A9AC" d="M356.784,309.077h31.818c2.283,0,4.142-1.851,4.142-4.135V156.149c0-2.283-1.858-4.136-4.142-4.136
			h-31.818c-0.289,0-0.544,0.108-0.817,0.169v156.729C356.24,308.97,356.495,309.077,356.784,309.077z"/>
		<path fill="#8E9093" d="M355.967,152.183c-1.882,0.386-3.321,1.972-3.321,3.967v148.793c0,1.994,1.439,3.579,3.321,3.97V152.183z"
			/>
	</g>
	<rect x="359.907" y="160.459" fill="#FFFFFF" width="25.567" height="95.313"/>
	<path fill="#FFFFFF" d="M383.722,281.63c0,6.089-4.938,11.027-11.031,11.027c-6.095,0-11.031-4.938-11.031-11.027
		c0-6.095,4.937-11.034,11.031-11.034C378.784,270.596,383.722,275.535,383.722,281.63z"/>
	<g>
		<g>
			<path fill="#E6DF79" d="M405.583,152.014h-0.468c-2.286,0-4.136,1.853-4.136,4.136v148.793c0,2.284,1.851,4.135,4.136,4.135
				h0.468V152.014z"/>
			<path fill="#FBF280" d="M436.935,309.077c2.284,0,4.14-1.851,4.14-4.135V156.149c0-2.283-1.856-4.136-4.14-4.136h-31.352v157.063
				H436.935z"/>
		</g>
		<rect x="408.241" y="160.459" fill="#FFFFFF" width="25.564" height="95.313"/>
		<path fill="#FFFFFF" d="M432.055,281.63c0,6.089-4.939,11.027-11.032,11.027c-6.093,0-11.03-4.938-11.03-11.027
			c0-6.095,4.937-11.034,11.03-11.034C427.116,270.596,432.055,275.535,432.055,281.63z"/>
	</g>
	<g>
		<g>
			<path fill="#D95543" d="M454.025,152.264h-0.468c-2.286,0-4.136,1.853-4.136,4.136v148.793c0,2.284,1.851,4.135,4.136,4.135
				h0.468V152.264z"/>
			<path fill="#F15F4C" d="M485.376,309.327c2.284,0,4.14-1.851,4.14-4.135V156.399c0-2.283-1.856-4.136-4.14-4.136h-31.352v157.063
				H485.376z"/>
		</g>
		<rect x="456.683" y="160.709" fill="#FFFFFF" width="25.564" height="95.313"/>
		<path fill="#FFFFFF" d="M480.497,281.88c0,6.089-4.939,11.027-11.032,11.027c-6.093,0-11.03-4.938-11.03-11.027
			c0-6.095,4.937-11.034,11.03-11.034C475.558,270.846,480.497,275.785,480.497,281.88z"/>
	</g>
	<g>
		<g>
			<g>
				<path fill="#8E9093" d="M503.256,152.264h-0.468c-2.286,0-4.136,1.853-4.136,4.136v148.793c0,2.284,1.851,4.135,4.136,4.135
					h0.468V152.264z"/>
			</g>
			<g>
				<path fill="#A7A9AC" d="M534.608,309.327c2.284,0,4.14-1.851,4.14-4.135V156.399c0-2.283-1.856-4.136-4.14-4.136h-31.352
					v157.063H534.608z"/>
			</g>
		</g>
		<rect x="505.914" y="160.709" fill="#FFFFFF" width="25.564" height="95.313"/>
		<path fill="#FFFFFF" d="M529.729,281.88c0,6.089-4.939,11.027-11.032,11.027c-6.093,0-11.03-4.938-11.03-11.027
			c0-6.095,4.937-11.034,11.03-11.034C524.789,270.846,529.729,275.785,529.729,281.88z"/>
	</g>
	<g>
		
			<rect x="608.973" y="252.582" transform="matrix(1 0.0016 -0.0016 1 0.4554 -1.0168)" fill="#FFF845" width="25.672" height="50.762"/>
		<path fill="#354F68" d="M712.549,300.026l0.412-62.332l-61.62-0.099l-7.6,8.155l-31.743-0.053
			c-1.642-0.003-2.975,1.325-2.979,2.97l-0.005,3.894l25.672,0.042l-0.081,50.763l-25.673-0.043l-0.004,1.571l98.985-0.39
			C713.088,304.197,712.549,300.026,712.549,300.026z"/>
		<path fill="#2D455C" d="M723.158,240.683c0.005-1.642-1.325-2.975-2.966-2.978l-7.231-0.011l-0.412,62.332
			c0,0,0.539,4.171-4.636,4.479l-98.985,0.39l-0.003,2.041c-0.001,1.642,1.327,2.976,2.968,2.978l108.183,0.179
			c1.641,0,2.974-1.329,2.978-2.97L723.158,240.683z"/>
		<path fill="#5EC1D4" d="M702.916,273.87c-0.025,16.758-13.631,30.318-30.388,30.291c-16.755-0.028-30.319-13.635-30.29-30.391
			c0.027-16.754,13.632-30.316,30.388-30.29C689.383,243.508,702.944,257.113,702.916,273.87z"/>
		<circle fill="#3F3A37" cx="672.578" cy="273.821" r="23.918"/>
		<circle fill="#3F3A37" cx="702.879" cy="297.787" r="6.423"/>
		<path fill="#F1584F" d="M706.381,297.794c-0.005,1.931-1.574,3.497-3.508,3.495c-1.933-0.005-3.498-1.575-3.496-3.506
			c0.003-1.935,1.573-3.499,3.506-3.494C704.818,294.289,706.383,295.861,706.381,297.794z"/>
		
			<rect x="657.62" y="230.931" transform="matrix(1 0.0016 -0.0016 1 0.3723 -1.0708)" fill="#F1584F" width="30.05" height="4.669"/>
		<path fill="#2C728C" d="M642.289,241.679c0,0.969-0.787,1.75-1.754,1.75l-11.375-0.02c-0.967-0.002-1.75-0.786-1.75-1.755l0,0
			c0.003-0.969,0.789-1.75,1.758-1.749l11.375,0.018C641.51,239.925,642.292,240.709,642.289,241.679L642.289,241.679z"/>
		<path fill="#2C728C" d="M624.55,240.624c-0.002,1.694-1.377,3.067-3.076,3.066l-5.051-0.009c-1.699-0.003-3.074-1.381-3.071-3.075
			l0,0c0.006-1.703,1.382-3.071,3.079-3.07l5.051,0.01C623.179,237.548,624.555,238.923,624.55,240.624L624.55,240.624z"/>
		
			<rect x="699.46" y="243.538" transform="matrix(1 0.0015 -0.0015 1 0.3799 -1.0881)" fill="#F3EC52" width="17.797" height="6.425"/>
		<circle fill="#504946" cx="666.533" cy="269.076" r="10.809"/>
	</g>
</g>
</svg>
