<?xml version="1.0" encoding="utf-8"?>
<!-- Generator: Adobe Illustrator 17.0.2, SVG Export Plug-In . SVG Version: 6.00 Build 0)  -->
<!DOCTYPE svg PUBLIC "-//W3C//DTD SVG 1.1//EN" "http://www.w3.org/Graphics/SVG/1.1/DTD/svg11.dtd">
<svg version="1.1" id="Layer_1" xmlns="http://www.w3.org/2000/svg" xmlns:xlink="http://www.w3.org/1999/xlink" x="0px" y="0px"
	 width="417.333px" height="417.333px" viewBox="0 0 417.333 417.333" enable-background="new 0 0 417.333 417.333"
	 xml:space="preserve">
<g>
	<circle fill="none" stroke="#85D4F3" stroke-width="10.4821" stroke-miterlimit="10" cx="208.785" cy="208.556" r="202.556"/>
	<g>
		<circle fill="#2693D1" cx="207.993" cy="208.562" r="189.978"/>
		<g>
			<defs>
				<circle id="SVGID_1_" cx="207.993" cy="208.562" r="189.978"/>
			</defs>
			<clipPath id="SVGID_2_">
				<use xlink:href="#SVGID_1_"  overflow="visible"/>
			</clipPath>
			<polygon opacity="0.3" clip-path="url(#SVGID_2_)" fill="#134C7C" points="553.536,339.834 316,529.081 91.507,303.434 
				182.9,279.309 269.457,194.226 325.47,110.917 			"/>
		</g>
		<g>
			<g>
				<path fill="#15406C" d="M305.373,312.789H108.638c-14.238,0-25.781-11.542-25.781-25.781V125.33
					c0-14.238,11.542-25.781,25.781-25.781h196.735c14.238,0,25.781,11.542,25.781,25.781v161.678
					C331.154,301.246,319.611,312.789,305.373,312.789z"/>
			</g>
			<g>
				<rect x="97.707" y="150.11" fill="#FFFFFF" width="220.154" height="145.781"/>
			</g>
			<g>
				<circle fill="#2693D1" cx="260.502" cy="126.674" r="14.123"/>
			</g>
			<g>
				<circle fill="#6BC4EE" cx="222.774" cy="126.674" r="14.124"/>
			</g>
			<g>
				<circle fill="#EF426A" cx="300.316" cy="126.674" r="14.124"/>
			</g>
			<g>
				<g>
					<path fill="#6BC4EE" d="M176.995,260.759c-1.254,0-2.505-0.497-3.433-1.482l-32.514-34.485
						c-1.711-1.813-1.714-4.646-0.008-6.463l32.514-34.648c1.781-1.899,4.768-1.995,6.667-0.212
						c1.899,1.782,1.995,4.768,0.212,6.667l-29.478,31.412l29.47,31.258c1.787,1.895,1.699,4.88-0.196,6.667
						C179.318,260.333,178.155,260.759,176.995,260.759z"/>
				</g>
				<g>
					<path fill="#6BC4EE" d="M198.343,251.797c-0.574,0-1.156-0.105-1.723-0.327c-2.425-0.952-3.619-3.689-2.667-6.114
						l21.781-55.482c0.951-2.426,3.689-3.621,6.114-2.667c2.425,0.952,3.619,3.689,2.667,6.114l-21.781,55.482
						C202.005,250.661,200.226,251.797,198.343,251.797z"/>
				</g>
				<g>
					<path fill="#6BC4EE" d="M241.37,260.759c-1.157,0-2.316-0.423-3.227-1.277c-1.899-1.782-1.995-4.768-0.212-6.667l29.478-31.412
						l-29.47-31.258c-1.787-1.895-1.699-4.88,0.196-6.667c1.896-1.789,4.881-1.699,6.667,0.196l32.514,34.485
						c1.711,1.814,1.714,4.646,0.008,6.463l-32.514,34.648C243.883,260.259,242.628,260.759,241.37,260.759z"/>
				</g>
			</g>
		</g>
	</g>
</g>
</svg>
