<?xml version="1.0" encoding="UTF-8"?><svg xmlns="http://www.w3.org/2000/svg" xmlns:xlink="http://www.w3.org/1999/xlink" viewBox="0 0 48 48" version="1.1"><g id="surface1"><path d="M31.914 6c-9.227 0-10.504 8.563-13.902 12.09C14.648 21.566 6 24.117 6 32.129c0 1.851.844 3.82 2.984 5.883 1.133 1.101 2.707 1.61 4.551 1.61 4.746 0 11.317-3.411 16.965-9.255 7.84-8.125 10.914-17.87 6.883-21.773C35.465 6.742 33.64 6 31.914 6z" fill="#A1887F"/><path d="M37.625 8.883c3.629 4.066.535 13.543-7.125 21.484-5.648 5.844-12.219 9.254-16.965 9.254-1.363 0-2.574-.281-3.574-.871 6.96 5.633 17.164 3.707 24.793-4.195 7.777-8.063 10.129-18.309 2.871-25.672z" fill="#6D4C41"/><path d="M25.277 17.703c-.605 1.684-1.129 3.672-2.644 5.242-1.457 1.52-3.98 2.61-5.531 3.383-4 1.977-5.48 6.219-5.192 9.067.88-3.223 4.031-5.16 6.649-6.434 1.722-.848 4.64-1.8 6.5-3.73 1.992-2.051 2.312-4.465 2.996-6.29.937-2.464 3.879-6.132 6.656-7.746-2.484-.07-7.555 1.34-9.434 6.508z" fill="#6D4C41"/></g><metadata><rdf:RDF xmlns:rdf="http://www.w3.org/1999/02/22-rdf-syntax-ns#" xmlns:rdfs="http://www.w3.org/2000/01/rdf-schema#" xmlns:dc="http://purl.org/dc/elements/1.1/"><rdf:Description about="https://iconscout.com/legal#licenses" dc:title="java,bean" dc:description="java,bean" dc:publisher="Iconscout" dc:date="2017-12-15" dc:format="image/svg+xml" dc:language="en"><dc:creator><rdf:Bag><rdf:li>Icons8</rdf:li></rdf:Bag></dc:creator></rdf:Description></rdf:RDF></metadata></svg>