<?xml version="1.0" encoding="UTF-8"?><svg xmlns="http://www.w3.org/2000/svg" xmlns:xlink="http://www.w3.org/1999/xlink" version="1.1" x="0px" y="0px" viewBox="0 0 32 32" xml:space="preserve"><g id="style_2_copy_5"><path fill="#FFF" d="M16 31.5C7.453 31.5.5 24.547.5 16S7.453.5 16 .5 31.5 7.453 31.5 16 24.547 31.5 16 31.5z"/><path fill="#00BDFF" d="M16 1c8.271 0 15 6.729 15 15s-6.729 15-15 15S1 24.271 1 16 7.729 1 16 1m0-1C7.163 0 0 7.163 0 16s7.163 16 16 16 16-7.163 16-16S24.837 0 16 0z"/><path d="M16 3.007c7.165 0 12.993 5.829 12.993 12.993S23.164 28.993 16 28.993 3.007 23.164 3.007 16 8.835 3.007 16 3.007"/><path opacity="0.3" fill="#FFF" d="M16 3.006C8.836 3.006 3.006 8.836 3.006 16a12.95 12.95 0 0 0 3.858 9.227L25.227 6.864A12.954 12.954 0 0 0 16 3.006z"/><g><path id="Cat_2_" fill="#FFF" d="M18.52 24.493H13.992s.006-1.344 0-2.265c-3.099.667-3.964-1.699-3.964-1.699-.566-1.132-1.132-1.699-1.132-1.699-1.132-.673 0-.566 0-.566 1.132 0 1.699 1.132 1.699 1.132.994 1.687 2.762 1.416 3.397 1.132 0-.566.248-1.422.566-1.699-2.473-.279-4.532-1.699-4.532-4.53s.568-3.397 1.135-3.964c-.114-.279-.588-1.311.018-2.831 0 0 1.113 0 2.245 1.699.561-.561 2.265-.566 2.832-.566.565 0 2.269.005 2.83.566 1.132-1.699 2.248-1.699 2.248-1.699.605 1.52.132 2.552.017 2.831.566.566 1.132 1.132 1.132 3.964s-2.056 4.251-4.53 4.53c.319.276.566 1.251.566 1.699l.001 3.965z"/></g></g><metadata><rdf:RDF xmlns:rdf="http://www.w3.org/1999/02/22-rdf-syntax-ns#" xmlns:rdfs="http://www.w3.org/2000/01/rdf-schema#" xmlns:dc="http://purl.org/dc/elements/1.1/"><rdf:Description about="https://iconscout.com/legal#licenses" dc:title="github,social,media,corporate,logo" dc:description="github,social,media,corporate,logo" dc:publisher="Iconscout" dc:date="2017-09-15" dc:format="image/svg+xml" dc:language="en"><dc:creator><rdf:Bag><rdf:li>Epicflaticon by Alfredo</rdf:li></rdf:Bag></dc:creator></rdf:Description></rdf:RDF></metadata></svg>