<?xml version="1.0" encoding="UTF-8"?><svg xmlns="http://www.w3.org/2000/svg" xmlns:xlink="http://www.w3.org/1999/xlink" version="1.1" id="Layer_1" x="0px" y="0px" viewBox="0 0 24 24" xml:space="preserve"><path fill="#303C42" d="M23.77 11.08c-.069-.046-1.498-.948-2.848-.733-.327-1.37-1.583-2.222-1.645-2.263a.497.497 0 0 0-.638.07c-.1.103-.966 1.074-.721 3.282a.524.524 0 0 1-.126.41.455.455 0 0 1-.344.154H17V9.5a.5.5 0 0 0-.5-.5H14V3.5a.5.5 0 0 0-.5-.5h-3a.5.5 0 0 0-.5.5V6H4.5a.5.5 0 0 0-.5.5V9H1.5a.5.5 0 0 0-.5.5V12H.5a.5.5 0 0 0-.5.5C0 20.172 5.595 21 8 21c6.193 0 10.498-3.762 12.377-7.077 2.475-.395 3.509-2.094 3.554-2.168a.5.5 0 0 0-.16-.676z"/><path fill="#42A5F5" d="M14 10h2v2h-2z"/><path fill="#42A5F5" d="M11 10h2v2h-2z"/><path fill="#42A5F5" d="M8 10h2v2H8z"/><path fill="#42A5F5" d="M5 10h2v2H5z"/><path fill="#42A5F5" d="M11 7h2v2h-2z"/><path fill="#42A5F5" d="M11 4h2v2h-2z"/><path fill="#42A5F5" d="M8 7h2v2H8z"/><path fill="#42A5F5" d="M5 7h2v2H5z"/><path fill="#42A5F5" d="M2 10h2v2H2z"/><path fill="#42A5F5" d="M20.002 12.965a.5.5 0 0 0-.382.26C17.942 16.352 13.891 20 8 20c-2.546 0-6.773-.924-6.991-7h16.44c.421 0 .808-.173 1.088-.486.287-.322.424-.754.375-1.19-.113-1.02.053-1.686.214-2.07.375.363.874.987.874 1.746a.502.502 0 0 0 .723.447c.595-.3 1.44-.048 2.015.212-.432.455-1.3 1.138-2.736 1.306z"/><path opacity="0.1" d="M20.723 11.447a.491.491 0 0 1-.343.022 21.575 21.575 0 0 0-2.617 2.425C15.488 16.36 11.905 18.5 7.244 18.5c-1.62 0-3.871-.361-5.482-2.016C3.132 19.452 6.054 20 8 20c5.891 0 9.942-3.65 11.62-6.774a.5.5 0 0 1 .382-.261c1.435-.168 2.304-.85 2.736-1.306-.574-.26-1.42-.512-2.015-.212z"/><circle fill="#303C42" cx="5.0408521" cy="16" r="1"/><circle fill="#FFF" cx="5.4685864" cy="15.729167" r="0.3229167"/><linearGradient id="SVGID_1_" gradientUnits="userSpaceOnUse" x1="1.5565449" y1="8.194829" x2="21.3001232" y2="17.4014111"><stop offset="0" stop-color="#FFF" stop-opacity="0.2"/><stop offset="1" stop-color="#FFF" stop-opacity="0"/></linearGradient><path fill="url(#SVGID_1_)" d="M23.77 11.08c-.069-.046-1.498-.948-2.848-.733-.327-1.37-1.583-2.222-1.645-2.263a.497.497 0 0 0-.638.07c-.1.103-.966 1.074-.721 3.282a.524.524 0 0 1-.126.41.455.455 0 0 1-.344.154H17V9.5a.5.5 0 0 0-.5-.5H14V3.5a.5.5 0 0 0-.5-.5h-3a.5.5 0 0 0-.5.5V6H4.5a.5.5 0 0 0-.5.5V9H1.5a.5.5 0 0 0-.5.5V12H.5a.5.5 0 0 0-.5.5C0 20.172 5.595 21 8 21c6.193 0 10.498-3.762 12.377-7.077 2.475-.395 3.509-2.094 3.554-2.168a.5.5 0 0 0-.16-.676z"/><metadata><rdf:RDF xmlns:rdf="http://www.w3.org/1999/02/22-rdf-syntax-ns#" xmlns:rdfs="http://www.w3.org/2000/01/rdf-schema#" xmlns:dc="http://purl.org/dc/elements/1.1/"><rdf:Description about="https://iconscout.com/legal#licenses" dc:title="social,media,logo,docker" dc:description="social,media,logo,docker" dc:publisher="Iconscout" dc:date="2017-11-27" dc:format="image/svg+xml" dc:language="en"><dc:creator><rdf:Bag><rdf:li>Those Icons</rdf:li></rdf:Bag></dc:creator></rdf:Description></rdf:RDF></metadata></svg>