<?xml version="1.0" encoding="UTF-8"?><svg xmlns="http://www.w3.org/2000/svg" xmlns:xlink="http://www.w3.org/1999/xlink" version="1.1" id="Layer_1" x="0px" y="0px" viewBox="0 0 24 24" xml:space="preserve"><path fill="#303C42" d="M22.171 7.326c.149-.988.049-3.528-.863-6a.503.503 0 0 0-.528-.323c-.096.011-2.35.302-5.733 2.752-.736-.177-1.826-.276-3.047-.276s-2.31.1-3.047.276c-3.385-2.45-5.638-2.74-5.734-2.752a.507.507 0 0 0-.528.324c-.912 2.47-1.011 5.01-.863 5.999C.598 8.846 0 10.596 0 12.669c0 6.66 3.492 10.329 9.833 10.329L12 23l2.166-.002c6.341 0 9.834-3.668 9.834-10.329 0-2.072-.599-3.823-1.829-5.343z"/><path fill="#5C6671" d="M14.166 21.998L12 22l-2.167-.002C5.803 21.998 1 20.379 1 12.669c0-1.938.555-3.49 1.748-4.885a.518.518 0 0 0 .088-.5c-.116-.334-.16-2.743.652-5.206.765.193 2.609.808 5.065 2.624a.5.5 0 0 0 .44.076c.63-.187 1.754-.3 3.007-.3 1.254 0 2.378.113 3.006.3.15.045.313.016.44-.077 2.456-1.815 4.3-2.43 5.065-2.623.813 2.463.769 4.872.653 5.205a.5.5 0 0 0 .088.501C22.444 9.179 23 10.731 23 12.669c0 7.71-4.804 9.329-8.834 9.329z"/><path fill="#303C42" d="M14.318 10.103c-.736.057-1.498.117-2.282.117h-.071c-.785 0-1.546-.06-2.282-.117-2.019-.157-3.925-.306-5.22 1.006C3.493 12.095 3 13.325 3 14.762 3 20.518 7.429 21 12.036 21 16.57 21 21 20.518 21 14.762c0-1.437-.492-2.667-1.463-3.654-1.294-1.31-3.2-1.163-5.22-1.005z"/><path fill="#D9CFCC" d="M11.964 20C6.8 20 4 19.165 4 14.762c0-1.166.396-2.16 1.175-2.952.632-.64 1.501-.811 2.567-.811.567 0 1.19.049 1.862.1.756.06 1.534.116 2.375.12.876.019 1.655-.06 2.417-.12 1.935-.148 3.461-.269 4.428.71.78.794 1.176 1.787 1.176 2.953C20 19.165 17.2 20 11.964 20z"/><path opacity="0.1" d="M5.175 12.56c.632-.64 1.501-.811 2.567-.811.567 0 1.19.049 1.862.1.756.06 1.534.116 2.375.12.876.019 1.655-.06 2.417-.12 1.935-.148 3.461-.269 4.428.71.725.737 1.102 1.652 1.155 2.712.009-.167.021-.33.021-.509 0-1.166-.396-2.16-1.176-2.952-.967-.98-2.493-.859-4.428-.71-.762.059-1.541.138-2.417.119-.84-.004-1.62-.06-2.375-.12-.671-.051-1.295-.1-1.862-.1-1.066 0-1.935.171-2.567.811C4.395 12.603 4 13.596 4 14.762c0 .179.012.342.021.509.053-1.06.43-1.975 1.154-2.71z"/><path fill="#303C42" d="M8 12c-1.14 0-2 1.505-2 3.5S6.86 19 8 19s2-1.505 2-3.5S9.14 12 8 12z"/><path fill="#6D4C41" d="M8 18c-.408 0-1-.974-1-2.5S7.592 13 8 13s1 .974 1 2.5S8.408 18 8 18z"/><path fill="#303C42" d="M16 12c-1.14 0-2 1.505-2 3.5s.86 3.5 2 3.5 2-1.505 2-3.5-.86-3.5-2-3.5z"/><path fill="#6D4C41" d="M16 18c-.408 0-1-.974-1-2.5s.592-2.5 1-2.5 1 .974 1 2.5-.592 2.5-1 2.5z"/><circle fill="#A1887F" cx="7.9088235" cy="14.4821968" r="0.4455882"/><circle fill="#A1887F" cx="15.908824" cy="14.4821968" r="0.4455882"/><linearGradient id="SVGID_1_" gradientUnits="userSpaceOnUse" x1="10.7681427" y1="13.8596916" x2="18.6325607" y2="21.7241096"><stop offset="0" stop-color="#000" stop-opacity="0.1"/><stop offset="1" stop-color="#000" stop-opacity="0"/></linearGradient><path fill="url(#SVGID_1_)" d="M20 11.65l-.017.007c.663.884 1.017 1.919 1.017 3.105C21 20.518 16.571 21 12.036 21c-2.666 0-5.266-.169-6.989-1.42l2.143 2.143c.88.193 1.78.275 2.643.275L12 22l2.166-.002c3.679 0 7.99-1.365 8.716-7.466L20 11.65z"/><linearGradient id="SVGID_2_" gradientUnits="userSpaceOnUse" x1="4.0038605" y1="18.5292473" x2="4.0473175" y2="18.5727043"><stop offset="0" stop-color="#000" stop-opacity="0.1"/><stop offset="1" stop-color="#000" stop-opacity="0"/></linearGradient><path fill="url(#SVGID_2_)" d="M4.01 18.528l-.01.005.043.044-.032-.049z"/><linearGradient id="SVGID_3_" gradientUnits="userSpaceOnUse" x1="0.617075" y1="5.7711129" x2="23.6903725" y2="16.5303688"><stop offset="0" stop-color="#FFF" stop-opacity="0.2"/><stop offset="1" stop-color="#FFF" stop-opacity="0"/></linearGradient><path fill="url(#SVGID_3_)" d="M22.171 7.326c.149-.988.049-3.528-.863-6a.503.503 0 0 0-.528-.323c-.096.011-2.35.302-5.733 2.752-.736-.177-1.826-.276-3.047-.276s-2.31.1-3.047.276c-3.385-2.45-5.638-2.74-5.734-2.752a.507.507 0 0 0-.528.324c-.912 2.47-1.011 5.01-.863 5.999C.598 8.846 0 10.596 0 12.669c0 6.66 3.492 10.329 9.833 10.329L12 23l2.166-.002c6.341 0 9.834-3.668 9.834-10.329 0-2.072-.599-3.823-1.829-5.343z"/><metadata><rdf:RDF xmlns:rdf="http://www.w3.org/1999/02/22-rdf-syntax-ns#" xmlns:rdfs="http://www.w3.org/2000/01/rdf-schema#" xmlns:dc="http://purl.org/dc/elements/1.1/"><rdf:Description about="https://iconscout.com/legal#licenses" dc:title="social,media,logo,github" dc:description="social,media,logo,github" dc:publisher="Iconscout" dc:date="2017-11-27" dc:format="image/svg+xml" dc:language="en"><dc:creator><rdf:Bag><rdf:li>Those Icons</rdf:li></rdf:Bag></dc:creator></rdf:Description></rdf:RDF></metadata></svg>